. 
  
http://www.torrentday.com/        :     The Hottest Private Tracker On The Net!!!


               www . TorrentDay . Com 
(((((((((((((= Enjoy No RAR releases =))))))))))))))))))))


...................................NFO:....................................

.http://www.imdb.com/title/tt0428541/

Directed by 	Laurence Malkin
Produced by 	Laurence Fishburne
Dolly Hall
Written by 	Chad Thumann
Laurence Malkin
Starring 	Mimi Ferrer
Laurence Fishburne
Touriya Haoud
Ryan Phillipe
Isa Hoes
Antonie Kamerling
Colm Meaney
Music by 	Vernon Reid
Noah Agruss
Cinematography 	Alexander Gruszynski
Editing by 	Herman P. Koerts
Maureen Meulen
Distributed by 	Lionsgate Films
Release date(s) 	July 6, 2006 (2006-07-06)
Running time 	87 minutes
Country 	United States
Language 	English

In Morocco to assist with the creation of a food charity, a Dutchman is abducted by a terrorist.


Video
ID                               : 0
Format                           : MPEG-4 Visual
Format profile                   : Advanced Simple@L5
Format settings, BVOP            : Yes
Format settings, QPel            : No
Format settings, GMC             : No warppoints
Format settings, Matrix          : Default (H.263)
Codec ID                         : XVID
Codec ID/Hint                    : XviD
Duration                         : 1h 23mn
Bit rate                         : 761 Kbps
Width                            : 592 pixels
Height                           : 320 pixels
Display aspect ratio             : 1.850
Frame rate                       : 25.000 fps
Resolution                       : 8 bits
Colorimetry                      : 4:2:0
Scan type                        : Progressive
Bits/(Pixel*Frame)               : 0.161
Stream size                      : 454 MiB (79%)
Writing library                  : XviD 1.1.2 (UTC 2006-11-01)

Audio
ID                               : 1
Format                           : MPEG Audio
Format version                   : Version 1
Format profile                   : Layer 3
Codec ID                         : 55
Codec ID/Hint                    : MP3
Duration                         : 1h 23mn
Bit rate mode                    : Constant
Bit rate                         : 192 Kbps
Channel(s)                       : 2 channels
Sampling rate                    : 44.1 KHz
Video delay                      : 63ms
Stream size                      : 115 MiB (20%)
Alignment                        : Split accross interleaves
Interleave, duration             : 500 ms (12.50 video frames)
Interleave, preload duration     : 1000 ms
Writing library                  : LAME3.98